#!OML:ASF H:\Terrain\Patient Classification 1\Walking\liu\liu.ASF
:FULLY-SPECIFIED
:DEGREES
298
root 10.0628 16.8535 4.81576 6.44274 4.25228 4.7775
lowerback -7.04515 -4.31452 -6.34922
upperback -0.187832 -5.31313 1.86782
thorax 4.51212 -2.79341 4.90269
lowerneck -21.1981 -4.47499 -12.2111
upperneck 22.9242 -5.38559 11.5827
head 11.6724 -2.07638 5.51875
rclavicle -1.80397e-014 -1.59028e-015
rhumerus -48.2102 7.19605 -83.103
rradius 37.9411
rwrist -21.2997
rhand -30.7765 -24.2171
rfingers 7.12502
rthumb -4.06734 -54.158
lclavicle -1.80397e-014 -1.59028e-015
lhumerus -9.737 -28.802 87.2855
lradius 31.1349
lwrist 15.0196
lhand -14.7482 -20.8131
lfingers 7.12502
lthumb 11.4076 8.85661
rfemur -39.9481 5.1989 9.68158
rtibia 30.7477
rfoot -22.7749 -9.532
rtoes -21.9328
lfemur 7.90339 3.8031 -30.0887
ltibia 3.02773
lfoot -14.1896 2.7503
ltoes -1.52393
299
root 10.0491 16.8583 4.96149 6.51129 4.90791 4.64467
lowerback -7.09963 -4.47167 -6.36693
upperback -0.245886 -5.52161 1.93364
thorax 4.5188 -2.89666 4.9519
lowerneck -20.6305 -4.39003 -12.2721
upperneck 22.5475 -5.33545 11.7812
head 11.4198 -2.04904 5.5972
rclavicle -8.27441e-014 -3.18055e-015
rhumerus -48.2086 6.76395 -83.0514
rradius 37.3259
rwrist -20.809
rhand -31.6722 -26.912
rfingers 7.12502
rthumb -4.93226 -56.8346
lclavicle -8.27441e-014 -3.18055e-015
lhumerus -9.86523 -29.9647 87.4655
lradius 31.8916
lwrist 16.1025
lhand -14.5437 -20.8085
lfingers 7.12502
lthumb 11.6048 8.8502
rfemur -40.1729 6.7798 8.71825
rtibia 29.5055
rfoot -23.3482 -10.4756
rtoes -18.0561
lfemur 9.96176 3.43717 -29.7272
ltibia -2.22639e-014
lfoot -12.9902 2.7742
ltoes -3.21562
300
root 10.0446 16.8698 5.10613 6.70907 5.38274 4.20785
lowerback -7.29258 -4.55024 -5.90679
upperback -0.386203 -5.65782 2.02143
thorax 4.46197 -2.9499 4.76039
lowerneck -20.1512 -4.37295 -12.2928
upperneck 22.3263 -5.38172 11.9206
head 11.2554 -2.06802 5.63639
rclavicle -9.29318e-015 -3.97569e-015
rhumerus -48.3571 6.45888 -83.1348
rradius 36.8815
rwrist -20.3891
rhand -31.6735 -27.2203
rfingers 7.12502
rthumb -4.93345 -57.1429
lclavicle -9.29318e-015 -3.97569e-015
lhumerus -10.1261 -31.0707 87.6389
lradius 32.7282
lwrist 17.194
lhand -14.542 -20.5124
lfingers 7.12502
lthumb 11.6065 9.1462
rfemur -40.6144 8.56507 7.94645
rtibia 28.3982
rfoot -24.0962 -11.3026
rtoes -14.5958
lfemur 10.263 3.25439 -29.0756
ltibia -1.59028e-014
lfoot -13.2327 2.75762
ltoes -4.18907
301
root 10.0444 16.8707 5.255 6.82541 5.72797 4.08604
lowerback -7.44243 -4.59758 -5.74325
upperback -0.475751 -5.72765 2.04354
thorax 4.44712 -2.97836 4.67547
lowerneck -20.0893 -4.46138 -12.1704
upperneck 22.5136 -5.49752 11.6494
head 11.3176 -2.14468 5.49872
rclavicle -2.13197e-014 7.15625e-015
rhumerus -48.7022 6.45961 -83.1443
rradius 36.7021
rwrist -20.1642
rhand -31.1152 -27.2876
rfingers 7.12502
rthumb -4.39434 -57.2221
lclavicle -2.13197e-014 7.15625e-015
lhumerus -10.3911 -32.0241 87.9553
lradius 33.5603
lwrist 17.9523
lhand -14.3261 -20.2501
lfingers 7.12502
lthumb 11.8147 9.39668
rfemur -41.0915 10.5923 6.62715
rtibia 27.4533
rfoot -25.4287 -12.5245
rtoes -15.681
lfemur 10.6999 3.18606 -28.7904
ltibia -3.18055e-014
lfoot -13.4589 2.68501
ltoes -3.23616
302
root 10.0449 16.8566 5.40961 6.94201 6.04887 4.35513
lowerback -7.55649 -4.66644 -6.01474
upperback -0.53817 -5.78919 2.01568
thorax 4.47787 -3.01294 4.78314
lowerneck -20.1193 -4.56675 -12.1507
upperneck 22.667 -5.60545 11.4379
head 11.3891 -2.21683 5.40178
rclavicle -2.78795e-014 1.74931e-014
rhumerus -49.281 7.14334 -83.4727
rradius 36.8332
rwrist -20.7262
rhand -30.3037 -25.1052
rfingers 7.12502
rthumb -3.61072 -55.0544
lclavicle -2.78795e-014 1.74931e-014
lhumerus -10.5383 -32.409 88.4364
lradius 34.0734
lwrist 17.7067
lhand -13.6019 -20.3849
lfingers 7.12502
lthumb 12.5129 9.22049
rfemur -41.7025 12.4413 4.83
rtibia 26.7532
rfoot -27.2992 -13.8537
rtoes -19.6204
lfemur 11.1507 3.10637 -28.9336
ltibia -6.36111e-015
lfoot -13.5421 2.38698
ltoes -1.10989
303
root 10.0463 16.8384 5.56743 7.13902 6.35875 4.58727
lowerback -7.81409 -4.70696 -6.19115
upperback -0.574504 -5.80931 1.94879
thorax 4.59736 -3.0271 4.79043
lowerneck -19.471 -4.55782 -12.5617
upperneck 22.1763 -5.62727 11.9188
head 11.1122 -2.22232 5.6349
rclavicle -7.524e-014 1.35174e-014
rhumerus -49.5331 7.3415 -83.7355
rradius 36.5617
rwrist -20.9169
rhand -27.1871 -18.3585
rfingers 7.12502
rthumb -0.600786 -48.3374
lclavicle -7.524e-014 1.35174e-014
lhumerus -10.6069 -32.8208 88.7401
lradius 34.5834
lwrist 17.2705
lhand -12.8164 -20.3963
lfingers 7.12502
lthumb 13.2702 9.16121
rfemur -42.461 14.1939 3.07159
rtibia 26.3565
rfoot -29.1131 -15.0809
rtoes -21.8316
lfemur 11.4883 3.02541 -29.025
ltibia -1.59028e-014
lfoot -13.6756 2.07182
ltoes -0.209438
304
root 10.0386 16.8248 5.72133 7.18604 6.86029 4.63626
lowerback -7.94618 -4.79201 -6.23237
upperback -0.531012 -5.90712 1.8878
thorax 4.72793 -3.07973 4.7229
lowerneck -19.6666 -4.70602 -12.6529
upperneck 22.1764 -5.87415 12.2426
head 11.2018 -2.29878 5.73673
rclavicle -1.27719e-014 9.54166e-015
rhumerus -49.2953 6.59825 -83.4885
rradius 35.906
rwrist -20.2673
rhand -29.8272 -25.732
rfingers 7.12502
rthumb -3.15062 -55.6884
lclavicle -1.27719e-014 9.54166e-015
lhumerus -10.7036 -33.7992 88.8852
lradius 35.2735
lwrist 17.5858
lhand -12.5666 -20.3571
lfingers 7.12502
lthumb 13.5109 9.18459
rfemur -43.0204 16.2013 1.47688
rtibia 26.1337
rfoot -30.7398 -16.9367
rtoes -21.7657
lfemur 12.0075 2.78953 -28.836
ltibia 3.18055e-015
lfoot -13.9009 1.8965
ltoes -0.394131
305
root 10.0307 16.8052 5.87138 7.18405 7.3228 4.9578
lowerback -7.87466 -4.94351 -6.6149
upperback -0.515297 -6.07681 1.83309
thorax 4.76163 -3.1727 4.85781
lowerneck -19.5988 -4.71794 -12.7236
upperneck 21.992 -5.90432 12.4057
head 11.133 -2.30089 5.79955
rclavicle -3.11595e-014 9.54166e-015
rhumerus -49.2734 6.38775 -83.2599
rradius 35.5995
rwrist -20.0621
rhand -30.177 -27.5375
rfingers 7.12502
rthumb -3.48842 -57.4887
lclavicle -3.11595e-014 9.54166e-015
lhumerus -10.8804 -34.7393 89.1642
lradius 35.9261
lwrist 18.0872
lhand -12.2008 -20.4549
lfingers 7.12502
lthumb 13.8635 9.06309
rfemur -43.4226 17.4194 0.0682575
rtibia 25.8788
rfoot -31.5102 -18.6668
rtoes -22.6885
lfemur 12.6538 2.5734 -28.9461
ltibia 1.59028e-014
lfoot -14.1463 1.59689
ltoes 0.30656
306
root 10.0256 16.7788 6.02864 7.27577 7.44062 5.24151
lowerback -7.9362 -5.01699 -7.00256
upperback -0.599042 -6.13898 1.86962
thorax 4.76217 -3.20995 5.10135
lowerneck -19.2452 -4.70478 -12.9379
upperneck 21.8019 -5.84723 12.4187
head 10.9929 -2.30191 5.84244
rclavicle -7.96133e-014 0
rhumerus -49.6001 6.71377 -83.1438
rradius 35.4109
rwrist -20.0315
rhand -29.8101 -26.8737
rfingers 7.12502
rthumb -3.13403 -56.8304
lclavicle -7.96133e-014 0
lhumerus -11.3044 -34.9198 89.7272
lradius 36.5533
lwrist 17.7961
lhand -11.3541 -20.5789
lfingers 7.12502
lthumb 14.6794 8.88146
rfemur -43.8556 17.9546 -0.804956
rtibia 25.5208
rfoot -31.968 -19.7177
rtoes -22.9469
lfemur 13.2057 2.68095 -29.056
ltibia -4.45278e-014
lfoot -14.4427 1.13959
ltoes 1.35035
307
root 10.0162 16.7529 6.1858 7.37394 7.44989 5.10003
lowerback -8.02387 -4.9625 -6.90312
upperback -0.755937 -6.07315 1.90723
thorax 4.62974 -3.16703 5.0961
lowerneck -18.8571 -4.68291 -12.8086
upperneck 21.7683 -5.85366 12.2363
head 10.8954 -2.32653 5.74676
rclavicle -4.66647e-014 -3.18055e-015
rhumerus -49.7118 6.05712 -82.7475
rradius 34.614
rwrist -18.9952
rhand -28.2791 -27.186
rfingers 7.12502
rthumb -1.65544 -57.1593
lclavicle -4.66647e-014 -3.18055e-015
lhumerus -11.9981 -35.5609 90.3238
lradius 37.2263
lwrist 17.6575
lhand -11.3006 -20.8009
lfingers 7.12502
lthumb 14.7309 8.6557
rfemur -44.1939 18.1536 -0.849533
rtibia 25.2359
rfoot -32.8452 -19.8742
rtoes -21.3767
lfemur 13.7066 2.92769 -28.7047
ltibia 6.36111e-015
lfoot -14.6643 0.872805
ltoes 1.19895
